<?xml version="1.0" encoding="UTF-8" standalone="no"?>
<svg
   xmlns:dc="http://purl.org/dc/elements/1.1/"
   xmlns:cc="http://creativecommons.org/ns#"
   xmlns:rdf="http://www.w3.org/1999/02/22-rdf-syntax-ns#"
   xmlns:svg="http://www.w3.org/2000/svg"
   xmlns="http://www.w3.org/2000/svg"
   xmlns:sodipodi="http://sodipodi.sourceforge.net/DTD/sodipodi-0.dtd"
   xmlns:inkscape="http://www.inkscape.org/namespaces/inkscape"
   width="1000"
   height="1000"
   id="svg4265"
   version="1.1"
   inkscape:version="0.91 r13725"
   sodipodi:docname="field.svg">
  <metadata
     id="metadata4311">
    <rdf:RDF>
      <cc:Work
         rdf:about="">
        <dc:format>image/svg+xml</dc:format>
        <dc:type
           rdf:resource="http://purl.org/dc/dcmitype/StillImage" />
        <dc:title></dc:title>
      </cc:Work>
    </rdf:RDF>
  </metadata>
  <defs
     id="defs4309" />
  <sodipodi:namedview
     pagecolor="#ffffff"
     bordercolor="#666666"
     borderopacity="1"
     objecttolerance="10"
     gridtolerance="10"
     guidetolerance="10"
     inkscape:pageopacity="0"
     inkscape:pageshadow="2"
     inkscape:window-width="1280"
     inkscape:window-height="691"
     id="namedview4307"
     showgrid="false"
     inkscape:zoom="1.8536512"
     inkscape:cx="-3.0674847"
     inkscape:cy="731.85474"
     inkscape:window-x="0"
     inkscape:window-y="1"
     inkscape:window-maximized="1"
     inkscape:current-layer="svg4265" />
  <g
     id="g4372">
    <g
       transform="translate(2.9999975,-1)"
       id="g4332">
      <rect
         id="rect4269"
         y="0"
         x="0"
         height="1000"
         width="1000"
         style="fill:#01a611" />
      <path
         inkscape:connector-curvature="0"
         id="path4271"
         d="m 799.99986,537.09891 a 300,300.00002 0 0 1 -599.99999,0 300,300.00002 0 1 1 599.99999,0 z"
         style="fill:#d2b452" />
      <rect
         id="rect4273"
         transform="matrix(0.70710678,-0.70710678,0.70710678,0.70710678,0,0)"
         y="601.04077"
         x="-106.06602"
         height="212.13203"
         width="212.13203"
         style="fill:#01a611" />
      <path
         inkscape:connector-curvature="0"
         id="path4275"
         d="m 536.00001,500.00001 c 0,19.88225 -16.11776,36 -36,36 -19.88226,0 -36,-16.11775 -36,-36 0,-19.88225 16.11774,-36 36,-36 19.88224,0 36,16.11775 36,36 z"
         style="fill:#d2b452" />
      <rect
         id="rect4277"
         transform="matrix(0.70710678,-0.70710678,0.70710678,0.70710678,0,0)"
         y="575.15875"
         x="110.92928"
         height="21.031384"
         width="21.006104"
         style="fill:#ffffff" />
      <rect
         id="rect4279"
         transform="matrix(0.70710678,-0.70710678,0.70710678,0.70710678,0,0)"
         y="818.01709"
         x="110.93559"
         height="21.031384"
         width="21.006104"
         style="fill:#ffffff" />
      <rect
         id="rect4281"
         transform="matrix(0.70710678,-0.70710678,0.70710678,0.70710678,0,0)"
         y="575.16504"
         x="-131.94171"
         height="21.031384"
         width="21.006104"
         style="fill:#ffffff" />
      <rect
         id="rect4283"
         y="496.25"
         x="485"
         height="7.5"
         width="30"
         style="fill:#ffffff" />
      <path
         inkscape:connector-curvature="0"
         id="path4285"
         d="m 526.89787,374.89788 c -0.16872,0.1754 -0.32693,0.35912 -0.49901,0.5312 -0.84476,0.84476 -1.71769,1.65346 -2.63988,2.41453 -0.9222,0.76106 -1.88797,1.48587 -2.88135,2.15698 -0.99337,0.67112 -2.0162,1.29234 -3.0745,1.86724 -1.0583,0.57491 -2.1507,1.10506 -3.26766,1.57749 -1.11697,0.47245 -2.25926,0.89185 -3.42864,1.25556 -1.16938,0.36371 -2.35798,0.66879 -3.5735,0.91752 -1.21553,0.24874 -2.46296,0.43589 -3.71838,0.56339 -1.25543,0.1275 -2.5259,0.19317 -3.81496,0.19317 -1.28906,0 -2.55954,-0.0657 -3.81496,-0.19317 -1.25542,-0.1275 -2.50285,-0.31465 -3.71838,-0.56339 -1.21553,-0.24873 -2.40413,-0.55381 -3.57351,-0.91752 -1.16937,-0.36371 -2.31166,-0.78311 -3.42863,-1.25556 -1.11697,-0.47243 -2.20936,-1.00258 -3.26767,-1.57749 -1.0583,-0.5749 -2.08113,-1.19612 -3.0745,-1.86724 -0.99338,-0.67111 -1.95914,-1.39592 -2.88134,-2.15698 -0.9222,-0.76107 -1.79513,-1.56977 -2.63989,-2.41453 -0.17208,-0.17208 -0.33029,-0.3558 -0.499,-0.5312 L 499.99999,348 l 26.89788,26.89788 z"
         style="fill:#d2b452" />
      <path
         inkscape:connector-curvature="0"
         id="path4287"
         d="m 625.10211,526.89788 c -0.1754,-0.16872 -0.35912,-0.32693 -0.5312,-0.49901 -0.84476,-0.84476 -1.65346,-1.71769 -2.41453,-2.63988 -0.76106,-0.9222 -1.48587,-1.88797 -2.15698,-2.88135 -0.67112,-0.99337 -1.29234,-2.0162 -1.86724,-3.0745 -0.57491,-1.0583 -1.10506,-2.1507 -1.57749,-3.26766 -0.47245,-1.11697 -0.89185,-2.25926 -1.25556,-3.42864 -0.36371,-1.16938 -0.66879,-2.35798 -0.91752,-3.5735 -0.24874,-1.21553 -0.43589,-2.46296 -0.56339,-3.71838 -0.1275,-1.25543 -0.19317,-2.5259 -0.19317,-3.81496 0,-1.28906 0.0657,-2.55954 0.19317,-3.81496 0.1275,-1.25542 0.31465,-2.50285 0.56339,-3.71838 0.24873,-1.21553 0.55381,-2.40413 0.91752,-3.57351 0.36371,-1.16937 0.78311,-2.31166 1.25556,-3.42863 0.47243,-1.11697 1.00258,-2.20936 1.57749,-3.26767 0.5749,-1.0583 1.19612,-2.08113 1.86724,-3.0745 0.67111,-0.99338 1.39592,-1.95914 2.15698,-2.88134 0.76107,-0.9222 1.56977,-1.79513 2.41453,-2.63989 0.17208,-0.17208 0.3558,-0.33029 0.5312,-0.499 L 651.99999,500 625.10211,526.89788 Z"
         style="fill:#d2b452" />
      <path
         inkscape:connector-curvature="0"
         id="path4289"
         d="m 374.89787,473.10212 c 0.1754,0.16872 0.35912,0.32693 0.5312,0.49901 0.84476,0.84476 1.65346,1.71769 2.41453,2.63988 0.76106,0.9222 1.48587,1.88797 2.15698,2.88135 0.67112,0.99337 1.29234,2.0162 1.86724,3.0745 0.57491,1.0583 1.10506,2.1507 1.57749,3.26766 0.47245,1.11697 0.89185,2.25926 1.25556,3.42864 0.36371,1.16938 0.66879,2.35798 0.91752,3.5735 0.24874,1.21553 0.43589,2.46296 0.56339,3.71838 0.1275,1.25543 0.19317,2.5259 0.19317,3.81496 0,1.28906 -0.0657,2.55954 -0.19317,3.81496 -0.1275,1.25542 -0.31465,2.50285 -0.56339,3.71838 -0.24873,1.21553 -0.55381,2.40413 -0.91752,3.57351 -0.36371,1.16937 -0.78311,2.31166 -1.25556,3.42863 -0.47243,1.11697 -1.00258,2.20936 -1.57749,3.26767 -0.5749,1.0583 -1.19612,2.08113 -1.86724,3.0745 -0.67111,0.99338 -1.39592,1.95914 -2.15698,2.88134 -0.76107,0.9222 -1.56977,1.79513 -2.41453,2.63989 -0.17208,0.17208 -0.3558,0.33029 -0.5312,0.499 L 347.99999,500 374.89787,473.10212 Z"
         style="fill:#d2b452" />
      <path
         inkscape:connector-curvature="0"
         id="path4291"
         d="M 66.5625,265.875 500.96875,700.25 934.125,267.09375 C 848.95519,115.21801 686.51439,12.5 500,12.5 313.98514,12.5 151.91716,114.66944 66.5625,265.875 Z"
         style="fill:none;stroke:#ffffff;stroke-width:5" />
      <path
         inkscape:connector-curvature="0"
         id="path4293"
         d="M 997.50006,188.22293 500.06219,685.66081 2.499935,188.12966 l 0,809.3704 995.000135,0 0,-809.27713 z"
         style="fill:#01a611;stroke:#ffffff;stroke-width:4.99987555" />
      <path
         inkscape:connector-curvature="0"
         id="path4297"
         d="m 575.02712,667.90581 c 0,41.42135 -33.57864,74.99999 -75,74.99999 -41.42136,0 -74.99999,-33.57864 -74.99999,-74.99999 0,-41.42137 33.57863,-75.00001 74.99999,-75.00001 41.42136,0 75,33.57864 75,75.00001 z"
         style="fill:#d2b452" />
      <g
         id="g4299"
         transform="translate(-302.43822,969.32569)">
        <rect
           id="rect4301"
           style="fill:#ffffff"
           width="14.906357"
           height="29.777462"
           x="301.39349"
           y="787.5766"
           transform="matrix(0,-1,1,0,0,0)" />
        <rect
           id="rect4303"
           style="fill:#ffffff"
           width="21.006104"
           height="21.031384"
           x="770.06781"
           y="343.80777"
           transform="matrix(0.70710678,-0.70710678,0.70710678,0.70710678,0,0)" />
      </g>
    </g>
    <rect
       style="fill:none;stroke:#01a611;stroke-width:20.10000992;stroke-miterlimit:4;stroke-dasharray:none"
       width="1004.9"
       height="1004.9"
       x="-1.4499915"
       y="-2.4499915"
       id="rect4295" />
  </g>
</svg>
