<svg xmlns:svg="http://www.w3.org/2000/svg" xmlns="http://www.w3.org/2000/svg" width="1000" height="1000">
    <path style="fill:none;stroke:rgba(0,0,0,1.0);stroke-width:1px" d="m 0,0,0 0,1000"/>
    <path style="fill:none;stroke:rgba(0,0,0,0.2);stroke-width:1px" d="m 10,0 0,1000"/>
    <path style="fill:none;stroke:rgba(0,0,0,0.2);stroke-width:1px" d="m 20,0 0,1000"/>
    <path style="fill:none;stroke:rgba(0,0,0,0.2);stroke-width:1px" d="m 30,0 0,1000"/>
    <path style="fill:none;stroke:rgba(0,0,0,0.2);stroke-width:1px" d="m 40,0 0,1000"/>
    <path style="fill:none;stroke:rgba(0,0,0,0.2);stroke-width:1px" d="m 50,0 0,1000"/>
    <path style="fill:none;stroke:rgba(0,0,0,0.2);stroke-width:1px" d="m 60,0 0,1000"/>
    <path style="fill:none;stroke:rgba(0,0,0,0.2);stroke-width:1px" d="m 70,0 0,1000"/>
    <path style="fill:none;stroke:rgba(0,0,0,0.2);stroke-width:1px" d="m 80,0 0,1000"/>
    <path style="fill:none;stroke:rgba(0,0,0,0.2);stroke-width:1px" d="m 90,0 0,1000"/>
    <path style="fill:none;stroke:rgba(0,0,0,1.0);stroke-width:1px" d="m 100,0 0,1000"/>
    <path style="fill:none;stroke:rgba(0,0,0,0.2);stroke-width:1px" d="m 110,0 0,1000"/>
    <path style="fill:none;stroke:rgba(0,0,0,0.2);stroke-width:1px" d="m 120,0 0,1000"/>
    <path style="fill:none;stroke:rgba(0,0,0,0.2);stroke-width:1px" d="m 130,0 0,1000"/>
    <path style="fill:none;stroke:rgba(0,0,0,0.2);stroke-width:1px" d="m 140,0 0,1000"/>
    <path style="fill:none;stroke:rgba(0,0,0,0.2);stroke-width:1px" d="m 150,0 0,1000"/>
    <path style="fill:none;stroke:rgba(0,0,0,0.2);stroke-width:1px" d="m 160,0 0,1000"/>
    <path style="fill:none;stroke:rgba(0,0,0,0.2);stroke-width:1px" d="m 170,0 0,1000"/>
    <path style="fill:none;stroke:rgba(0,0,0,0.2);stroke-width:1px" d="m 180,0 0,1000"/>
    <path style="fill:none;stroke:rgba(0,0,0,0.2);stroke-width:1px" d="m 190,0 0,1000"/>
    <path style="fill:none;stroke:rgba(0,0,0,1.0);stroke-width:1px" d="m 200,0 0,1000"/>
    <path style="fill:none;stroke:rgba(0,0,0,0.2);stroke-width:1px" d="m 210,0 0,1000"/>
    <path style="fill:none;stroke:rgba(0,0,0,0.2);stroke-width:1px" d="m 220,0 0,1000"/>
    <path style="fill:none;stroke:rgba(0,0,0,0.2);stroke-width:1px" d="m 230,0 0,1000"/>
    <path style="fill:none;stroke:rgba(0,0,0,0.2);stroke-width:1px" d="m 240,0 0,1000"/>
    <path style="fill:none;stroke:rgba(0,0,0,0.2);stroke-width:1px" d="m 250,0 0,1000"/>
    <path style="fill:none;stroke:rgba(0,0,0,0.2);stroke-width:1px" d="m 260,0 0,1000"/>
    <path style="fill:none;stroke:rgba(0,0,0,0.2);stroke-width:1px" d="m 270,0 0,1000"/>
    <path style="fill:none;stroke:rgba(0,0,0,0.2);stroke-width:1px" d="m 280,0 0,1000"/>
    <path style="fill:none;stroke:rgba(0,0,0,0.2);stroke-width:1px" d="m 290,0 0,1000"/>
    <path style="fill:none;stroke:rgba(0,0,0,1.0);stroke-width:1px" d="m 300,0 0,1000"/>
    <path style="fill:none;stroke:rgba(0,0,0,0.2);stroke-width:1px" d="m 310,0 0,1000"/>
    <path style="fill:none;stroke:rgba(0,0,0,0.2);stroke-width:1px" d="m 320,0 0,1000"/>
    <path style="fill:none;stroke:rgba(0,0,0,0.2);stroke-width:1px" d="m 330,0 0,1000"/>
    <path style="fill:none;stroke:rgba(0,0,0,0.2);stroke-width:1px" d="m 340,0 0,1000"/>
    <path style="fill:none;stroke:rgba(0,0,0,0.2);stroke-width:1px" d="m 350,0 0,1000"/>
    <path style="fill:none;stroke:rgba(0,0,0,0.2);stroke-width:1px" d="m 360,0 0,1000"/>
    <path style="fill:none;stroke:rgba(0,0,0,0.2);stroke-width:1px" d="m 370,0 0,1000"/>
    <path style="fill:none;stroke:rgba(0,0,0,0.2);stroke-width:1px" d="m 380,0 0,1000"/>
    <path style="fill:none;stroke:rgba(0,0,0,0.2);stroke-width:1px" d="m 390,0 0,1000"/>
    <path style="fill:none;stroke:rgba(0,0,0,1.0);stroke-width:1px" d="m 400,0 0,1000"/>
    <path style="fill:none;stroke:rgba(0,0,0,0.2);stroke-width:1px" d="m 410,0 0,1000"/>
    <path style="fill:none;stroke:rgba(0,0,0,0.2);stroke-width:1px" d="m 420,0 0,1000"/>
    <path style="fill:none;stroke:rgba(0,0,0,0.2);stroke-width:1px" d="m 430,0 0,1000"/>
    <path style="fill:none;stroke:rgba(0,0,0,0.2);stroke-width:1px" d="m 440,0 0,1000"/>
    <path style="fill:none;stroke:rgba(0,0,0,0.2);stroke-width:1px" d="m 450,0 0,1000"/>
    <path style="fill:none;stroke:rgba(0,0,0,0.2);stroke-width:1px" d="m 460,0 0,1000"/>
    <path style="fill:none;stroke:rgba(0,0,0,0.2);stroke-width:1px" d="m 470,0 0,1000"/>
    <path style="fill:none;stroke:rgba(0,0,0,0.2);stroke-width:1px" d="m 480,0 0,1000"/>
    <path style="fill:none;stroke:rgba(0,0,0,0.2);stroke-width:1px" d="m 490,0 0,1000"/>
    <path style="fill:none;stroke:rgba(0,0,0,1.0);stroke-width:2px" d="m 500,0 0,1000"/>
    <path style="fill:none;stroke:rgba(0,0,0,0.2);stroke-width:1px" d="m 510,0 0,1000"/>
    <path style="fill:none;stroke:rgba(0,0,0,0.2);stroke-width:1px" d="m 520,0 0,1000"/>
    <path style="fill:none;stroke:rgba(0,0,0,0.2);stroke-width:1px" d="m 530,0 0,1000"/>
    <path style="fill:none;stroke:rgba(0,0,0,0.2);stroke-width:1px" d="m 540,0 0,1000"/>
    <path style="fill:none;stroke:rgba(0,0,0,0.2);stroke-width:1px" d="m 550,0 0,1000"/>
    <path style="fill:none;stroke:rgba(0,0,0,0.2);stroke-width:1px" d="m 560,0 0,1000"/>
    <path style="fill:none;stroke:rgba(0,0,0,0.2);stroke-width:1px" d="m 570,0 0,1000"/>
    <path style="fill:none;stroke:rgba(0,0,0,0.2);stroke-width:1px" d="m 580,0 0,1000"/>
    <path style="fill:none;stroke:rgba(0,0,0,0.2);stroke-width:1px" d="m 590,0 0,1000"/>
    <path style="fill:none;stroke:rgba(0,0,0,1.0);stroke-width:1px" d="m 600,0 0,1000"/>
    <path style="fill:none;stroke:rgba(0,0,0,0.2);stroke-width:1px" d="m 610,0 0,1000"/>
    <path style="fill:none;stroke:rgba(0,0,0,0.2);stroke-width:1px" d="m 620,0 0,1000"/>
    <path style="fill:none;stroke:rgba(0,0,0,0.2);stroke-width:1px" d="m 630,0 0,1000"/>
    <path style="fill:none;stroke:rgba(0,0,0,0.2);stroke-width:1px" d="m 640,0 0,1000"/>
    <path style="fill:none;stroke:rgba(0,0,0,0.2);stroke-width:1px" d="m 650,0 0,1000"/>
    <path style="fill:none;stroke:rgba(0,0,0,0.2);stroke-width:1px" d="m 660,0 0,1000"/>
    <path style="fill:none;stroke:rgba(0,0,0,0.2);stroke-width:1px" d="m 670,0 0,1000"/>
    <path style="fill:none;stroke:rgba(0,0,0,0.2);stroke-width:1px" d="m 680,0 0,1000"/>
    <path style="fill:none;stroke:rgba(0,0,0,0.2);stroke-width:1px" d="m 690,0 0,1000"/>
    <path style="fill:none;stroke:rgba(0,0,0,1.0);stroke-width:1px" d="m 700,0 0,1000"/>
    <path style="fill:none;stroke:rgba(0,0,0,0.2);stroke-width:1px" d="m 710,0 0,1000"/>
    <path style="fill:none;stroke:rgba(0,0,0,0.2);stroke-width:1px" d="m 720,0 0,1000"/>
    <path style="fill:none;stroke:rgba(0,0,0,0.2);stroke-width:1px" d="m 730,0 0,1000"/>
    <path style="fill:none;stroke:rgba(0,0,0,0.2);stroke-width:1px" d="m 740,0 0,1000"/>
    <path style="fill:none;stroke:rgba(0,0,0,0.2);stroke-width:1px" d="m 750,0 0,1000"/>
    <path style="fill:none;stroke:rgba(0,0,0,0.2);stroke-width:1px" d="m 760,0 0,1000"/>
    <path style="fill:none;stroke:rgba(0,0,0,0.2);stroke-width:1px" d="m 770,0 0,1000"/>
    <path style="fill:none;stroke:rgba(0,0,0,0.2);stroke-width:1px" d="m 780,0 0,1000"/>
    <path style="fill:none;stroke:rgba(0,0,0,0.2);stroke-width:1px" d="m 790,0 0,1000"/>
    <path style="fill:none;stroke:rgba(0,0,0,1.0);stroke-width:1px" d="m 800,0 0,1000"/>
    <path style="fill:none;stroke:rgba(0,0,0,0.2);stroke-width:1px" d="m 810,0 0,1000"/>
    <path style="fill:none;stroke:rgba(0,0,0,0.2);stroke-width:1px" d="m 820,0 0,1000"/>
    <path style="fill:none;stroke:rgba(0,0,0,0.2);stroke-width:1px" d="m 830,0 0,1000"/>
    <path style="fill:none;stroke:rgba(0,0,0,0.2);stroke-width:1px" d="m 840,0 0,1000"/>
    <path style="fill:none;stroke:rgba(0,0,0,0.2);stroke-width:1px" d="m 850,0 0,1000"/>
    <path style="fill:none;stroke:rgba(0,0,0,0.2);stroke-width:1px" d="m 860,0 0,1000"/>
    <path style="fill:none;stroke:rgba(0,0,0,0.2);stroke-width:1px" d="m 870,0 0,1000"/>
    <path style="fill:none;stroke:rgba(0,0,0,0.2);stroke-width:1px" d="m 880,0 0,1000"/>
    <path style="fill:none;stroke:rgba(0,0,0,0.2);stroke-width:1px" d="m 890,0 0,1000"/>
    <path style="fill:none;stroke:rgba(0,0,0,1.0);stroke-width:1px" d="m 900,0 0,1000"/>
    <path style="fill:none;stroke:rgba(0,0,0,0.2);stroke-width:1px" d="m 910,0 0,1000"/>
    <path style="fill:none;stroke:rgba(0,0,0,0.2);stroke-width:1px" d="m 920,0 0,1000"/>
    <path style="fill:none;stroke:rgba(0,0,0,0.2);stroke-width:1px" d="m 930,0 0,1000"/>
    <path style="fill:none;stroke:rgba(0,0,0,0.2);stroke-width:1px" d="m 940,0 0,1000"/>
    <path style="fill:none;stroke:rgba(0,0,0,0.2);stroke-width:1px" d="m 950,0 0,1000"/>
    <path style="fill:none;stroke:rgba(0,0,0,0.2);stroke-width:1px" d="m 960,0 0,1000"/>
    <path style="fill:none;stroke:rgba(0,0,0,0.2);stroke-width:1px" d="m 970,0 0,1000"/>
    <path style="fill:none;stroke:rgba(0,0,0,0.2);stroke-width:1px" d="m 980,0 0,1000"/>
    <path style="fill:none;stroke:rgba(0,0,0,0.2);stroke-width:1px" d="m 990,0 0,1000"/>
    <path style="fill:none;stroke:rgba(0,0,0,1.0);stroke-width:1px" d="m 1000,0 0,1000"/>

    <path style="fill:none;stroke:rgba(0,0,0,1.0);stroke-width:1px" d="m 0,0 1000,0"/>
    <path style="fill:none;stroke:rgba(0,0,0,0.2);stroke-width:1px" d="m 0,10 1000,0"/>
    <path style="fill:none;stroke:rgba(0,0,0,0.2);stroke-width:1px" d="m 0,20 1000,0"/>
    <path style="fill:none;stroke:rgba(0,0,0,0.2);stroke-width:1px" d="m 0,30 1000,0"/>
    <path style="fill:none;stroke:rgba(0,0,0,0.2);stroke-width:1px" d="m 0,40 1000,0"/>
    <path style="fill:none;stroke:rgba(0,0,0,0.2);stroke-width:1px" d="m 0,50 1000,0"/>
    <path style="fill:none;stroke:rgba(0,0,0,0.2);stroke-width:1px" d="m 0,60 1000,0"/>
    <path style="fill:none;stroke:rgba(0,0,0,0.2);stroke-width:1px" d="m 0,70 1000,0"/>
    <path style="fill:none;stroke:rgba(0,0,0,0.2);stroke-width:1px" d="m 0,80 1000,0"/>
    <path style="fill:none;stroke:rgba(0,0,0,0.2);stroke-width:1px" d="m 0,90 1000,0"/>
    <path style="fill:none;stroke:rgba(0,0,0,1.0);stroke-width:1px" d="m 0,100 1000,0"/>
    <path style="fill:none;stroke:rgba(0,0,0,0.2);stroke-width:1px" d="m 0,110 1000,0"/>
    <path style="fill:none;stroke:rgba(0,0,0,0.2);stroke-width:1px" d="m 0,120 1000,0"/>
    <path style="fill:none;stroke:rgba(0,0,0,0.2);stroke-width:1px" d="m 0,130 1000,0"/>
    <path style="fill:none;stroke:rgba(0,0,0,0.2);stroke-width:1px" d="m 0,140 1000,0"/>
    <path style="fill:none;stroke:rgba(0,0,0,0.2);stroke-width:1px" d="m 0,150 1000,0"/>
    <path style="fill:none;stroke:rgba(0,0,0,0.2);stroke-width:1px" d="m 0,160 1000,0"/>
    <path style="fill:none;stroke:rgba(0,0,0,0.2);stroke-width:1px" d="m 0,170 1000,0"/>
    <path style="fill:none;stroke:rgba(0,0,0,0.2);stroke-width:1px" d="m 0,180 1000,0"/>
    <path style="fill:none;stroke:rgba(0,0,0,0.2);stroke-width:1px" d="m 0,190 1000,0"/>
    <path style="fill:none;stroke:rgba(0,0,0,1.0);stroke-width:1px" d="m 0,200 1000,0"/>
    <path style="fill:none;stroke:rgba(0,0,0,0.2);stroke-width:1px" d="m 0,210 1000,0"/>
    <path style="fill:none;stroke:rgba(0,0,0,0.2);stroke-width:1px" d="m 0,220 1000,0"/>
    <path style="fill:none;stroke:rgba(0,0,0,0.2);stroke-width:1px" d="m 0,230 1000,0"/>
    <path style="fill:none;stroke:rgba(0,0,0,0.2);stroke-width:1px" d="m 0,240 1000,0"/>
    <path style="fill:none;stroke:rgba(0,0,0,0.2);stroke-width:1px" d="m 0,250 1000,0"/>
    <path style="fill:none;stroke:rgba(0,0,0,0.2);stroke-width:1px" d="m 0,260 1000,0"/>
    <path style="fill:none;stroke:rgba(0,0,0,0.2);stroke-width:1px" d="m 0,270 1000,0"/>
    <path style="fill:none;stroke:rgba(0,0,0,0.2);stroke-width:1px" d="m 0,280 1000,0"/>
    <path style="fill:none;stroke:rgba(0,0,0,0.2);stroke-width:1px" d="m 0,290 1000,0"/>
    <path style="fill:none;stroke:rgba(0,0,0,1.0);stroke-width:1px" d="m 0,300 1000,0"/>
    <path style="fill:none;stroke:rgba(0,0,0,0.2);stroke-width:1px" d="m 0,310 1000,0"/>
    <path style="fill:none;stroke:rgba(0,0,0,0.2);stroke-width:1px" d="m 0,320 1000,0"/>
    <path style="fill:none;stroke:rgba(0,0,0,0.2);stroke-width:1px" d="m 0,330 1000,0"/>
    <path style="fill:none;stroke:rgba(0,0,0,0.2);stroke-width:1px" d="m 0,340 1000,0"/>
    <path style="fill:none;stroke:rgba(0,0,0,0.2);stroke-width:1px" d="m 0,350 1000,0"/>
    <path style="fill:none;stroke:rgba(0,0,0,0.2);stroke-width:1px" d="m 0,360 1000,0"/>
    <path style="fill:none;stroke:rgba(0,0,0,0.2);stroke-width:1px" d="m 0,370 1000,0"/>
    <path style="fill:none;stroke:rgba(0,0,0,0.2);stroke-width:1px" d="m 0,380 1000,0"/>
    <path style="fill:none;stroke:rgba(0,0,0,0.2);stroke-width:1px" d="m 0,390 1000,0"/>
    <path style="fill:none;stroke:rgba(0,0,0,1.0);stroke-width:1px" d="m 0,400 1000,0"/>
    <path style="fill:none;stroke:rgba(0,0,0,0.2);stroke-width:1px" d="m 0,410 1000,0"/>
    <path style="fill:none;stroke:rgba(0,0,0,0.2);stroke-width:1px" d="m 0,420 1000,0"/>
    <path style="fill:none;stroke:rgba(0,0,0,0.2);stroke-width:1px" d="m 0,430 1000,0"/>
    <path style="fill:none;stroke:rgba(0,0,0,0.2);stroke-width:1px" d="m 0,440 1000,0"/>
    <path style="fill:none;stroke:rgba(0,0,0,0.2);stroke-width:1px" d="m 0,450 1000,0"/>
    <path style="fill:none;stroke:rgba(0,0,0,0.2);stroke-width:1px" d="m 0,460 1000,0"/>
    <path style="fill:none;stroke:rgba(0,0,0,0.2);stroke-width:1px" d="m 0,470 1000,0"/>
    <path style="fill:none;stroke:rgba(0,0,0,0.2);stroke-width:1px" d="m 0,480 1000,0"/>
    <path style="fill:none;stroke:rgba(0,0,0,0.2);stroke-width:1px" d="m 0,490 1000,0"/>
    <path style="fill:none;stroke:rgba(0,0,0,1.0);stroke-width:2px" d="m 0,500 1000,0"/>
    <path style="fill:none;stroke:rgba(0,0,0,0.2);stroke-width:1px" d="m 0,510 1000,0"/>
    <path style="fill:none;stroke:rgba(0,0,0,0.2);stroke-width:1px" d="m 0,520 1000,0"/>
    <path style="fill:none;stroke:rgba(0,0,0,0.2);stroke-width:1px" d="m 0,530 1000,0"/>
    <path style="fill:none;stroke:rgba(0,0,0,0.2);stroke-width:1px" d="m 0,540 1000,0"/>
    <path style="fill:none;stroke:rgba(0,0,0,0.2);stroke-width:1px" d="m 0,550 1000,0"/>
    <path style="fill:none;stroke:rgba(0,0,0,0.2);stroke-width:1px" d="m 0,560 1000,0"/>
    <path style="fill:none;stroke:rgba(0,0,0,0.2);stroke-width:1px" d="m 0,570 1000,0"/>
    <path style="fill:none;stroke:rgba(0,0,0,0.2);stroke-width:1px" d="m 0,580 1000,0"/>
    <path style="fill:none;stroke:rgba(0,0,0,0.2);stroke-width:1px" d="m 0,590 1000,0"/>
    <path style="fill:none;stroke:rgba(0,0,0,1.0);stroke-width:1px" d="m 0,600 1000,0"/>
    <path style="fill:none;stroke:rgba(0,0,0,0.2);stroke-width:1px" d="m 0,610 1000,0"/>
    <path style="fill:none;stroke:rgba(0,0,0,0.2);stroke-width:1px" d="m 0,620 1000,0"/>
    <path style="fill:none;stroke:rgba(0,0,0,0.2);stroke-width:1px" d="m 0,630 1000,0"/>
    <path style="fill:none;stroke:rgba(0,0,0,0.2);stroke-width:1px" d="m 0,640 1000,0"/>
    <path style="fill:none;stroke:rgba(0,0,0,0.2);stroke-width:1px" d="m 0,650 1000,0"/>
    <path style="fill:none;stroke:rgba(0,0,0,0.2);stroke-width:1px" d="m 0,660 1000,0"/>
    <path style="fill:none;stroke:rgba(0,0,0,0.2);stroke-width:1px" d="m 0,670 1000,0"/>
    <path style="fill:none;stroke:rgba(0,0,0,0.2);stroke-width:1px" d="m 0,680 1000,0"/>
    <path style="fill:none;stroke:rgba(0,0,0,0.2);stroke-width:1px" d="m 0,690 1000,0"/>
    <path style="fill:none;stroke:rgba(0,0,0,1.0);stroke-width:1px" d="m 0,700 1000,0"/>
    <path style="fill:none;stroke:rgba(0,0,0,0.2);stroke-width:1px" d="m 0,710 1000,0"/>
    <path style="fill:none;stroke:rgba(0,0,0,0.2);stroke-width:1px" d="m 0,720 1000,0"/>
    <path style="fill:none;stroke:rgba(0,0,0,0.2);stroke-width:1px" d="m 0,730 1000,0"/>
    <path style="fill:none;stroke:rgba(0,0,0,0.2);stroke-width:1px" d="m 0,740 1000,0"/>
    <path style="fill:none;stroke:rgba(0,0,0,0.2);stroke-width:1px" d="m 0,750 1000,0"/>
    <path style="fill:none;stroke:rgba(0,0,0,0.2);stroke-width:1px" d="m 0,760 1000,0"/>
    <path style="fill:none;stroke:rgba(0,0,0,0.2);stroke-width:1px" d="m 0,770 1000,0"/>
    <path style="fill:none;stroke:rgba(0,0,0,0.2);stroke-width:1px" d="m 0,780 1000,0"/>
    <path style="fill:none;stroke:rgba(0,0,0,0.2);stroke-width:1px" d="m 0,790 1000,0"/>
    <path style="fill:none;stroke:rgba(0,0,0,1.0);stroke-width:1px" d="m 0,800 1000,0"/>
    <path style="fill:none;stroke:rgba(0,0,0,0.2);stroke-width:1px" d="m 0,810 1000,0"/>
    <path style="fill:none;stroke:rgba(0,0,0,0.2);stroke-width:1px" d="m 0,820 1000,0"/>
    <path style="fill:none;stroke:rgba(0,0,0,0.2);stroke-width:1px" d="m 0,830 1000,0"/>
    <path style="fill:none;stroke:rgba(0,0,0,0.2);stroke-width:1px" d="m 0,840 1000,0"/>
    <path style="fill:none;stroke:rgba(0,0,0,0.2);stroke-width:1px" d="m 0,850 1000,0"/>
    <path style="fill:none;stroke:rgba(0,0,0,0.2);stroke-width:1px" d="m 0,860 1000,0"/>
    <path style="fill:none;stroke:rgba(0,0,0,0.2);stroke-width:1px" d="m 0,870 1000,0"/>
    <path style="fill:none;stroke:rgba(0,0,0,0.2);stroke-width:1px" d="m 0,880 1000,0"/>
    <path style="fill:none;stroke:rgba(0,0,0,0.2);stroke-width:1px" d="m 0,890 1000,0"/>
    <path style="fill:none;stroke:rgba(0,0,0,1.0);stroke-width:1px" d="m 0,900 1000,0"/>
    <path style="fill:none;stroke:rgba(0,0,0,0.2);stroke-width:1px" d="m 0,910 1000,0"/>
    <path style="fill:none;stroke:rgba(0,0,0,0.2);stroke-width:1px" d="m 0,920 1000,0"/>
    <path style="fill:none;stroke:rgba(0,0,0,0.2);stroke-width:1px" d="m 0,930 1000,0"/>
    <path style="fill:none;stroke:rgba(0,0,0,0.2);stroke-width:1px" d="m 0,940 1000,0"/>
    <path style="fill:none;stroke:rgba(0,0,0,0.2);stroke-width:1px" d="m 0,950 1000,0"/>
    <path style="fill:none;stroke:rgba(0,0,0,0.2);stroke-width:1px" d="m 0,960 1000,0"/>
    <path style="fill:none;stroke:rgba(0,0,0,0.2);stroke-width:1px" d="m 0,970 1000,0"/>
    <path style="fill:none;stroke:rgba(0,0,0,0.2);stroke-width:1px" d="m 0,980 1000,0"/>
    <path style="fill:none;stroke:rgba(0,0,0,0.2);stroke-width:1px" d="m 0,990 1000,0"/>
    <path style="fill:none;stroke:rgba(0,0,0,1.0);stroke-width:1px" d="m 0,1000 1000,0"/>
</svg>
